# xmcd
#
# Track frame offsets:
#   150
#   19623
#   37348
#   53365
#   68920
#   84467
#   102447
#   119971
#   134176
#   148242
#   178628
#   198726
#   218236
#   238295
#   254265
#   276338
#   290431
#   310117
#   335191
#
# Disc length: 4665 seconds
#
# Revision: 0
# Processed by: cddbd v1.5.2PL0 Copyright (c) Steve Scherf et al.
# Submitted via: GXTranscoder 2.0.1939
#
DISCID=40123713
DTITLE=My Darkest Hate - Combat Area
DYEAR=2006
DGENRE=Death Metal
TTITLE0=Enter Combat
TTITLE1=When smoke has settled
TTITLE2=Bow before me
TTITLE3=Nothing lasts forever
TTITLE4=They Shall Fall
TTITLE5=Number Seven
TTITLE6=Fall of Eden
TTITLE7=Under my Wing
TTITLE8=The Principle of War
TTITLE9=Under one Flag
TTITLE10=To Reign again
TTITLE11=Lashed tot the slaved stick
TTITLE12=Controlled Murder
TTITLE13=Nothingness
TTITLE14=Whispers of Death
TTITLE15=
TTITLE16=ff
TTITLE17=ffff
TTITLE18=ffffffff
EXTD=
EXTT0=
EXTT1=
EXTT2=
EXTT3=
EXTT4=
EXTT5=
EXTT6=
EXTT7=
EXTT8=
EXTT9=
EXTT10=
EXTT11=
EXTT12=
EXTT13=
EXTT14=
EXTT15=
EXTT16=
EXTT17=
EXTT18=
PLAYORDER=
